<svg xmlns="http://www.w3.org/2000/svg" width="64" height="64" fill="none"><rect width="64" height="64" fill="#fff" rx="12"/><path fill="#000" d="m42.872 32.166-8.059-2.978-2.969-8.066a2.487 2.487 0 0 0-4.669 0l-2.987 8.066-8.066 2.968a2.488 2.488 0 0 0 0 4.669l8.066 2.987 2.969 8.066a2.488 2.488 0 0 0 4.669 0l2.987-8.066 8.066-2.968a2.488 2.488 0 0 0 0-4.669l-.007-.01Zm-9.465 5.493a1.25 1.25 0 0 0-.74.741L29.5 46.977l-3.159-8.57a1.249 1.249 0 0 0-.747-.748l-8.57-3.159 8.57-3.16a1.248 1.248 0 0 0 .747-.746l3.16-8.57 3.159 8.57a1.25 1.25 0 0 0 .74.74l8.577 3.166-8.57 3.16ZM34.5 18.25A1.25 1.25 0 0 1 35.75 17h2.5v-2.5a1.25 1.25 0 0 1 2.5 0V17h2.5a1.25 1.25 0 0 1 0 2.5h-2.5V22a1.25 1.25 0 0 1-2.5 0v-2.5h-2.5a1.25 1.25 0 0 1-1.25-1.25Zm16.25 7.5A1.25 1.25 0 0 1 49.5 27h-1.25v1.25a1.25 1.25 0 0 1-2.5 0V27H44.5a1.25 1.25 0 0 1 0-2.5h1.25v-1.25a1.25 1.25 0 0 1 2.5 0v1.25h1.25a1.25 1.25 0 0 1 1.25 1.25Z"/></svg>